HIERARCHY
ROOT hip
{
  OFFSET -0.140359 91.8931 -0.175966
  CHANNELS 6 Xposition Yposition Zposition Zrotation Xrotation Yrotation
  JOINT abdomen
  {
    OFFSET 0 7.2397 0
    CHANNELS 6 Xposition Yposition Zposition Zrotation Xrotation Yrotation
    JOINT chest
    {
      OFFSET 0 16.546 0
      CHANNELS 6 Xposition Yposition Zposition Zrotation Xrotation Yrotation
      JOINT neck
      {
        OFFSET 0 34.2149 0
        CHANNELS 6 Xposition Yposition Zposition Zrotation Xrotation Yrotation
        JOINT head
        {
          OFFSET 0 6.2923 0
          CHANNELS 6 Xposition Yposition Zposition Zrotation Xrotation Yrotation
          End Site
          {
            OFFSET 0 21.2161 0
          }
        }
      }
      JOINT lCollar
      {
        OFFSET 4.0639 26.6115 -1.1234
        CHANNELS 6 Xposition Yposition Zposition Zrotation Xrotation Yrotation
        JOINT lShldr
        {
          OFFSET 14.1772 0 0
          CHANNELS 6 Xposition Yposition Zposition Zrotation Xrotation Yrotation
          JOINT lForeArm
          {
            OFFSET 26.1234 0 0
            CHANNELS 6 Xposition Yposition Zposition Zrotation Xrotation Yrotation
            JOINT lHand
            {
              OFFSET 27.7188 0 0
              CHANNELS 6 Xposition Yposition Zposition Zrotation Xrotation Yrotation
              JOINT lThumb1
              {
                OFFSET 2.2979 -0.4685 1.8313
                CHANNELS 6 Xposition Yposition Zposition Zrotation Xrotation Yrotation
                JOINT lThumb2
                {
                  OFFSET 5.2953 0 0
                  CHANNELS 6 Xposition Yposition Zposition Zrotation Xrotation Yrotation
                  JOINT lThumb3
                  {
                    OFFSET 3.0181 0 0
                    CHANNELS 6 Xposition Yposition Zposition Zrotation Xrotation Yrotation
                    End Site
                    {
                      OFFSET 2.6294 0 0
                    }
                  }
                }
              }
              JOINT lIndex1
              {
                OFFSET 9.3793 0.2991 2.5924
                CHANNELS 6 Xposition Yposition Zposition Zrotation Xrotation Yrotation
                JOINT lIndex2
                {
                  OFFSET 4.3461 0 0
                  CHANNELS 6 Xposition Yposition Zposition Zrotation Xrotation Yrotation
                  JOINT lIndex3
                  {
                    OFFSET 2.1666 0 0
                    CHANNELS 6 Xposition Yposition Zposition Zrotation Xrotation Yrotation
                    End Site
                    {
                      OFFSET 2.2048 0 0
                    }
                  }
                }
              }
              JOINT lMid1
              {
                OFFSET 9.4769 0.8376 0.2947
                CHANNELS 6 Xposition Yposition Zposition Zrotation Xrotation Yrotation
                JOINT lMid2
                {
                  OFFSET 4.772 0 0
                  CHANNELS 6 Xposition Yposition Zposition Zrotation Xrotation Yrotation
                  JOINT lMid3
                  {
                    OFFSET 2.8722 0 0
                    CHANNELS 6 Xposition Yposition Zposition Zrotation Xrotation Yrotation
                    End Site
                    {
                      OFFSET 2.0959 0 0
                    }
                  }
                }
              }
              JOINT lRing1
              {
                OFFSET 8.6586 1.0176 -1.7016
                CHANNELS 6 Xposition Yposition Zposition Zrotation Xrotation Yrotation
                JOINT lRing2
                {
                  OFFSET 4.5461 0 0
                  CHANNELS 6 Xposition Yposition Zposition Zrotation Xrotation Yrotation
                  JOINT lRing3
                  {
                    OFFSET 2.506 0 0
                    CHANNELS 6 Xposition Yposition Zposition Zrotation Xrotation Yrotation
                    End Site
                    {
                      OFFSET 2.2023 0 0
                    }
                  }
                }
              }
              JOINT lPinky1
              {
                OFFSET 7.6901 0.6618 -3.9096
                CHANNELS 6 Xposition Yposition Zposition Zrotation Xrotation Yrotation
                JOINT lPinky2
                {
                  OFFSET 3.2119 0 0
                  CHANNELS 6 Xposition Yposition Zposition Zrotation Xrotation Yrotation
                  JOINT lPinky3
                  {
                    OFFSET 1.924 0 0
                    CHANNELS 6 Xposition Yposition Zposition Zrotation Xrotation Yrotation
                    End Site
                    {
                      OFFSET 1.7829 0 0
                    }
                  }
                }
              }
            }
          }
        }
      }
      JOINT rCollar
      {
        OFFSET -4.0677 26.6109 -1.1234
        CHANNELS 6 Xposition Yposition Zposition Zrotation Xrotation Yrotation
        JOINT rShldr
        {
          OFFSET -14.1772 0 0
          CHANNELS 6 Xposition Yposition Zposition Zrotation Xrotation Yrotation
          JOINT rForeArm
          {
            OFFSET -26.1234 0 0
            CHANNELS 6 Xposition Yposition Zposition Zrotation Xrotation Yrotation
            JOINT rHand
            {
              OFFSET -27.7188 0 0
              CHANNELS 6 Xposition Yposition Zposition Zrotation Xrotation Yrotation
              JOINT rThumb1
              {
                OFFSET -2.2979 -0.4684 1.8313
                CHANNELS 6 Xposition Yposition Zposition Zrotation Xrotation Yrotation
                JOINT rThumb2
                {
                  OFFSET -5.2953 0 0
                  CHANNELS 6 Xposition Yposition Zposition Zrotation Xrotation Yrotation
                  JOINT rThumb3
                  {
                    OFFSET -3.0181 0 0
                    CHANNELS 6 Xposition Yposition Zposition Zrotation Xrotation Yrotation
                    End Site
                    {
                      OFFSET -2.6294 0 0
                    }
                  }
                }
              }
              JOINT rIndex1
              {
                OFFSET -9.3793 0.2991 2.5924
                CHANNELS 6 Xposition Yposition Zposition Zrotation Xrotation Yrotation
                JOINT rIndex2
                {
                  OFFSET -4.3461 0 0
                  CHANNELS 6 Xposition Yposition Zposition Zrotation Xrotation Yrotation
                  JOINT rIndex3
                  {
                    OFFSET -2.1666 0 0
                    CHANNELS 6 Xposition Yposition Zposition Zrotation Xrotation Yrotation
                    End Site
                    {
                      OFFSET -2.2048 0 0
                    }
                  }
                }
              }
              JOINT rMid1
              {
                OFFSET -9.4769 0.8376 0.2947
                CHANNELS 6 Xposition Yposition Zposition Zrotation Xrotation Yrotation
                JOINT rMid2
                {
                  OFFSET -4.772 0 0
                  CHANNELS 6 Xposition Yposition Zposition Zrotation Xrotation Yrotation
                  JOINT rMid3
                  {
                    OFFSET -2.8722 0 0
                    CHANNELS 6 Xposition Yposition Zposition Zrotation Xrotation Yrotation
                    End Site
                    {
                      OFFSET -2.0959 0 0
                    }
                  }
                }
              }
              JOINT rRing1
              {
                OFFSET -8.6586 1.0176 -1.7016
                CHANNELS 6 Xposition Yposition Zposition Zrotation Xrotation Yrotation
                JOINT rRing2
                {
                  OFFSET -4.5461 0 0
                  CHANNELS 6 Xposition Yposition Zposition Zrotation Xrotation Yrotation
                  JOINT rRing3
                  {
                    OFFSET -2.506 0 0
                    CHANNELS 6 Xposition Yposition Zposition Zrotation Xrotation Yrotation
                    End Site
                    {
                      OFFSET -2.2023 0 0
                    }
                  }
                }
              }
              JOINT rPinky1
              {
                OFFSET -7.6901 0.6618 -3.9096
                CHANNELS 6 Xposition Yposition Zposition Zrotation Xrotation Yrotation
                JOINT rPinky2
                {
                  OFFSET -3.2119 0 0
                  CHANNELS 6 Xposition Yposition Zposition Zrotation Xrotation Yrotation
                  JOINT rPinky3
                  {
                    OFFSET -1.924 0 0
                    CHANNELS 6 Xposition Yposition Zposition Zrotation Xrotation Yrotation
                    End Site
                    {
                      OFFSET -1.7829 0 0
                    }
                  }
                }
              }
            }
          }
        }
      }
    }
  }
  JOINT lThigh
  {
    OFFSET 8.7379 -0.0029 0.0005
    CHANNELS 6 Xposition Yposition Zposition Zrotation Xrotation Yrotation
    JOINT lShin
    {
      OFFSET 0 -46.6676 0
      CHANNELS 6 Xposition Yposition Zposition Zrotation Xrotation Yrotation
      JOINT lFoot
      {
        OFFSET 0 -40.1476 0
        CHANNELS 6 Xposition Yposition Zposition Zrotation Xrotation Yrotation
        JOINT lToes
        {
          OFFSET 0 -8.8846 14.2294
          CHANNELS 6 Xposition Yposition Zposition Zrotation Xrotation Yrotation
          End Site
          {
            OFFSET 0 0 6.296
          }
        }
      }
    }
  }
  JOINT rThigh
  {
    OFFSET -8.7379 0.0029 -0.0005
    CHANNELS 6 Xposition Yposition Zposition Zrotation Xrotation Yrotation
    JOINT rShin
    {
      OFFSET 0 -46.6676 0
      CHANNELS 6 Xposition Yposition Zposition Zrotation Xrotation Yrotation
      JOINT rFoot
      {
        OFFSET 0 -40.1476 0
        CHANNELS 6 Xposition Yposition Zposition Zrotation Xrotation Yrotation
        JOINT rToes
        {
          OFFSET 0 -8.8846 14.2294
          CHANNELS 6 Xposition Yposition Zposition Zrotation Xrotation Yrotation
          End Site
          {
            OFFSET 0 0 6.296
          }
        }
      }
    }
  }
}
MOTION
Frames:	4
Frame Time:	0.0333333
-0.140359 91.8931 -0.175966 -2.7067 6.12486 -53.8938 1.77636e-15 7.2397 0 1.30131 0.0893052 7.60234 0 16.546 4.44089e-16 2.06968 2.22128 14.8639 2.22045e-16 34.2149 0 -9.36425 42.396 10.6634 8.88178e-16 6.2923 0 6.93551 -19.8063 22.9841 4.0639 26.6115 -1.1234 -4.32077 -1.72303 10.2066 14.1772 0 -8.88178e-16 -47.752 -5.45177 -54.4837 26.1234 0 0 -0.85267 0.739441 -81.8705 27.7188 1.42109e-14 7.10543e-15 42.4302 -37.6793 58.5113 2.2979 -0.4685 1.8313 32.94 60.5134 -45.4486 5.2953 0 7.10543e-15 3.95096 11.3734 9.93537 3.0181 1.42109e-14 0 37.2975 -0.458525 -5.86666 9.3793 0.2991 2.5924 -26.0979 -3.16132 2.61784 4.3461 0 0 -60.4203 -5.80098 10.4164 2.1666 -7.10543e-15 0 -25.6796 -1.14302 4.60813 9.4769 0.8376 0.2947 -36.1603 -7.10938 1.35292 4.772 -7.10543e-15 0 -58.0092 -6.97912 12.7135 2.8722 0 0 -34.0679 -2.44167 9.72168 8.6586 1.0176 -1.7016 -44.9026 -1.50514 -2.43069 4.5461 0 0 -60.723 -4.04831 6.90513 2.506 0 0 -13.0833 -0.150098 2.71721 7.6901 0.6618 -3.9096 -35.2133 -10.9784 -9.0143 3.2119 0 2.84217e-14 -55.1774 -8.70999 16.5841 1.924 0 0 -25.5945 -1.90601 10.1678 -4.0677 26.6109 -1.1234 -10.8107 -19.8083 -4.22552 -14.1772 -2.84217e-14 7.10543e-15 51.0535 35.4811 98.1975 -26.1234 1.42109e-14 0 0.418481 0.108525 29.0772 -27.7188 0 2.84217e-14 -38.3601 -43.4649 -35.8553 -2.2979 -0.4684 1.8313 -50.0644 74.385 88.2388 -5.2953 0 3.55271e-15 27.2356 20.4136 -21.4288 -3.0181 2.84217e-14 -7.10543e-15 33.1305 -4.53438 -35.9601 -9.3793 0.2991 2.5924 19.7814 -2.43564 -4.5438 -4.3461 -8.88178e-16 0 48.9272 -3.40175 -8.07322 -2.1666 0 2.84217e-14 52.4099 -4.06672 -7.87373 -9.4769 0.8376 0.2947 43.0582 -7.40551 -19.0728 -4.772 3.55271e-15 0 108.256 -17.8599 -13.028 -2.8722 -7.10543e-15 2.84217e-14 14.337 -0.317746 -4.67746 -8.6586 1.0176 -1.7016 51.5828 -2.05719 -9.80258 -4.5461 0 0 97.4434 -7.56428 -6.64243 -2.506 0 2.84217e-14 42.3448 -1.69977 -5.29326 -7.6901 0.6618 -3.9096 52.1932 -13.5754 -6.19123 -3.2119 -7.10543e-15 0 67.2431 -11.6274 -17.4114 -1.924 0 0 44.4591 -5.33191 -14.5627 8.7379 -0.0029 0.0005 25.208 -25.0265 28.842 0 -46.6676 0 3.31098 32.1048 9.39418 1.77636e-15 -40.1476 0 -8.17379 -1.10207 13.6694 0 -8.8846 14.2294 0.0001 0 -0 -8.7379 0.0029 -0.0005 -9.81363 -11.5895 -23.801 0 -46.6676 -3.55271e-15 -5.18544 25.6561 9.76328 3.55271e-15 -40.1476 -8.88178e-16 13.7322 -11.529 -15.7417 -3.55271e-15 -8.8846 14.2294 -9.93923e-17 -1.2424e-17 3.97569e-16 
-0.130469 91.8366 -0.199299 -2.72512 6.1313 -53.885 0 7.2397 0 1.30462 0.101268 7.59163 0 16.546 0 2.07939 2.24543 14.8411 -4.44089e-16 34.2149 0 -9.34757 42.3633 10.6398 0 6.2923 0 6.94575 -19.7985 22.9256 4.0639 26.6115 -1.1234 -4.44239 -1.70254 10.2615 14.1772 0 -1.77636e-15 -47.8131 -5.47382 -54.5591 26.1234 1.42109e-14 1.42109e-14 -0.85271 0.739997 -81.9054 27.7188 0 0 42.276 -37.531 58.6576 2.2979 -0.4685 1.8313 32.94 60.5134 -45.4486 5.2953 -2.84217e-14 -2.13163e-14 3.95096 11.3734 9.93537 3.0181 -1.42109e-14 0 37.2975 -0.458525 -5.86666 9.3793 0.2991 2.5924 -26.0979 -3.16132 2.61784 4.3461 -7.10543e-15 -2.84217e-14 -60.4203 -5.80098 10.4164 2.1666 7.10543e-15 0 -25.6796 -1.14302 4.60813 9.4769 0.8376 0.2947 -36.1603 -7.10938 1.35292 4.772 0 0 -58.0092 -6.97912 12.7135 2.8722 3.55271e-15 0 -34.0679 -2.44167 9.72168 8.6586 1.0176 -1.7016 -44.9026 -1.50514 -2.43069 4.5461 7.10543e-15 0 -60.723 -4.04831 6.90513 2.506 0 0 -13.0833 -0.150098 2.71721 7.6901 0.6618 -3.9096 -35.2133 -10.9784 -9.0143 3.2119 -1.42109e-14 2.84217e-14 -55.1774 -8.70999 16.5841 1.924 0 2.84217e-14 -25.5945 -1.90601 10.1678 -4.0677 26.6109 -1.1234 -10.7557 -19.8024 -4.18711 -14.1772 5.68434e-14 0 51.1537 35.5237 98.0969 -26.1234 1.42109e-14 0 0.419512 0.109103 29.1557 -27.7188 -2.84217e-14 0 -38.3763 -43.3632 -36.0428 -2.2979 -0.4684 1.8313 -50.0644 74.385 88.2388 -5.2953 1.42109e-14 -3.55271e-15 27.2356 20.4136 -21.4288 -3.0181 0 0 33.1305 -4.53438 -35.9601 -9.3793 0.2991 2.5924 19.7814 -2.43564 -4.5438 -4.3461 -8.88178e-16 -2.84217e-14 48.9272 -3.40175 -8.07322 -2.1666 0 0 52.4099 -4.06672 -7.87373 -9.4769 0.8376 0.2947 43.0582 -7.40551 -19.0728 -4.772 -7.10543e-15 0 108.256 -17.8599 -13.028 -2.8722 1.42109e-14 0 14.337 -0.317746 -4.67746 -8.6586 1.0176 -1.7016 51.5828 -2.05719 -9.80258 -4.5461 0 -2.84217e-14 97.4434 -7.56428 -6.64243 -2.506 7.10543e-15 0 42.3448 -1.69977 -5.29326 -7.6901 0.6618 -3.9096 52.1932 -13.5754 -6.19123 -3.2119 7.10543e-15 0 67.2431 -11.6274 -17.4114 -1.924 7.10543e-15 0 44.4591 -5.33191 -14.5627 8.7379 -0.0029 0.0005 25.2928 -25.1357 28.9084 0 -46.6676 0 3.35799 32.3328 9.30293 3.55271e-15 -40.1476 3.55271e-15 -8.20243 -1.19731 13.6788 0 -8.8846 14.2294 0.0001 -1.86361e-17 -3.97569e-16 -8.7379 0.0029 -0.0005 -9.84119 -11.7301 -23.8166 0 -46.6676 0 -5.23595 25.9713 9.80304 0 -40.1476 -1.77636e-15 13.7107 -11.6922 -15.7319 0 -8.8846 14.2294 -1.98785e-16 0 3.97569e-16 
-0.120926 91.7795 -0.22253 -2.74447 6.13817 -53.8744 1.77636e-15 7.2397 -4.44089e-16 1.30828 0.113113 7.58026 0 16.546 0 2.08975 2.26937 14.817 0 34.2149 0 -9.33025 42.331 10.6156 0 6.2923 1.42109e-14 6.95696 -19.7901 22.8646 4.0639 26.6115 -1.1234 -4.56273 -1.68199 10.3141 14.1772 0 1.77636e-15 -47.8756 -5.4962 -54.6328 26.1234 0 0 -0.852746 0.740527 -81.9408 27.7188 -1.42109e-14 -1.42109e-14 42.1228 -37.3797 58.8069 2.2979 -0.4685 1.8313 32.94 60.5134 -45.4486 5.2953 1.42109e-14 1.42109e-14 3.95096 11.3734 9.93537 3.0181 0 7.10543e-15 37.2975 -0.458525 -5.86666 9.3793 0.2991 2.5924 -26.0979 -3.16132 2.61784 4.3461 0 0 -60.4203 -5.80098 10.4164 2.1666 3.55271e-15 0 -25.6796 -1.14302 4.60813 9.4769 0.8376 0.2947 -36.1603 -7.10938 1.35292 4.772 -7.10543e-15 0 -58.0092 -6.97912 12.7135 2.8722 -7.10543e-15 2.84217e-14 -34.0679 -2.44167 9.72168 8.6586 1.0176 -1.7016 -44.9026 -1.50514 -2.43069 4.5461 7.10543e-15 2.84217e-14 -60.723 -4.04831 6.90513 2.506 0 5.68434e-14 -13.0833 -0.150098 2.71721 7.6901 0.6618 -3.9096 -35.2133 -10.9784 -9.0143 3.2119 0 0 -55.1774 -8.70999 16.5841 1.924 0 2.84217e-14 -25.5945 -1.90601 10.1678 -4.0677 26.6109 -1.1234 -10.7024 -19.7968 -4.14761 -14.1772 -2.84217e-14 -7.10543e-15 51.2522 35.5635 97.9964 -26.1234 0 0 0.420528 0.109672 29.2332 -27.7188 0 -1.42109e-14 -38.3936 -43.2664 -36.2347 -2.2979 -0.4684 1.8313 -50.0644 74.385 88.2388 -5.2953 0 0 27.2356 20.4136 -21.4288 -3.0181 0 0 33.1305 -4.53438 -35.9601 -9.3793 0.2991 2.5924 19.7814 -2.43564 -4.5438 -4.3461 1.77636e-15 0 48.9272 -3.40175 -8.07322 -2.1666 0 -2.84217e-14 52.4099 -4.06672 -7.87373 -9.4769 0.8376 0.2947 43.0582 -7.40551 -19.0728 -4.772 -7.10543e-15 2.84217e-14 108.256 -17.8599 -13.028 -2.8722 0 0 14.337 -0.317746 -4.67746 -8.6586 1.0176 -1.7016 51.5828 -2.05719 -9.80258 -4.5461 0 -2.84217e-14 97.4434 -7.56428 -6.64243 -2.506 0 0 42.3448 -1.69977 -5.29326 -7.6901 0.6618 -3.9096 52.1932 -13.5754 -6.19123 -3.2119 7.10543e-15 -2.84217e-14 67.2431 -11.6274 -17.4114 -1.924 0 0 44.4591 -5.33191 -14.5627 8.7379 -0.0029 0.0005 25.3793 -25.2463 28.9762 3.55271e-15 -46.6676 0 3.40705 32.5642 9.20793 1.77636e-15 -40.1476 -3.55271e-15 -8.23126 -1.29432 13.6884 0 -8.8846 14.2294 0.0001 0 3.97569e-16 -8.7379 0.0029 -0.0005 -9.86858 -11.8711 -23.8328 0 -46.6676 7.10543e-15 -5.28726 26.2898 9.84372 -3.55271e-15 -40.1476 -2.66454e-15 13.6887 -11.8572 -15.7241 0 -8.8846 14.2294 8.62091e-35 6.21202e-18 -7.95139e-16 
-0.110689 91.7237 -0.245965 -2.76198 6.14415 -53.8675 0 7.2397 -4.44089e-16 1.31126 0.125196 7.57022 1.77636e-15 16.546 4.44089e-16 2.09887 2.29375 14.7956 -2.22045e-16 34.2149 0 -9.31432 42.2978 10.5927 0 6.2923 -1.42109e-14 6.9663 -19.7829 22.8085 4.0639 26.6115 -1.1234 -4.68576 -1.6616 10.3711 14.1772 0 8.88178e-16 -47.9355 -5.51755 -54.7099 26.1234 0 0 -0.852782 0.741015 -81.9752 27.7188 0 -1.42109e-14 41.9656 -37.2341 58.9487 2.2979 -0.4685 1.8313 32.94 60.5134 -45.4486 5.2953 0 -7.10543e-15 3.95096 11.3734 9.93537 3.0181 0 2.13163e-14 37.2975 -0.458525 -5.86666 9.3793 0.2991 2.5924 -26.0979 -3.16132 2.61784 4.3461 -7.10543e-15 0 -60.4203 -5.80098 10.4164 2.1666 3.55271e-15 2.84217e-14 -25.6796 -1.14302 4.60813 9.4769 0.8376 0.2947 -36.1603 -7.10938 1.35292 4.772 0 -2.84217e-14 -58.0092 -6.97912 12.7135 2.8722 -1.06581e-14 0 -34.0679 -2.44167 9.72168 8.6586 1.0176 -1.7016 -44.9026 -1.50514 -2.43069 4.5461 -1.42109e-14 0 -60.723 -4.04831 6.90513 2.506 -7.10543e-15 -2.84217e-14 -13.0833 -0.150098 2.71721 7.6901 0.6618 -3.9096 -35.2133 -10.9784 -9.0143 3.2119 0 0 -55.1774 -8.70999 16.5841 1.924 0 2.84217e-14 -25.5945 -1.90601 10.1678 -4.0677 26.6109 -1.1234 -10.6459 -19.7906 -4.1103 -14.1772 2.84217e-14 0 51.3547 35.6082 97.8948 -26.1234 -1.42109e-14 1.42109e-14 0.421568 0.110255 29.3127 -27.7188 1.42109e-14 1.42109e-14 -38.4066 -43.1591 -36.416 -2.2979 -0.4684 1.8313 -50.0644 74.385 88.2388 -5.2953 2.84217e-14 0 27.2356 20.4136 -21.4288 -3.0181 0 0 33.1305 -4.53438 -35.9601 -9.3793 0.2991 2.5924 19.7814 -2.43564 -4.5438 -4.3461 0 0 48.9272 -3.40175 -8.07322 -2.1666 0 0 52.4099 -4.06672 -7.87373 -9.4769 0.8376 0.2947 43.0582 -7.40551 -19.0728 -4.772 -3.55271e-15 -2.84217e-14 108.256 -17.8599 -13.028 -2.8722 0 2.84217e-14 14.337 -0.317746 -4.67746 -8.6586 1.0176 -1.7016 51.5828 -2.05719 -9.80258 -4.5461 0 2.84217e-14 97.4434 -7.56428 -6.64243 -2.506 0 0 42.3448 -1.69977 -5.29326 -7.6901 0.6618 -3.9096 52.1932 -13.5754 -6.19123 -3.2119 7.10543e-15 0 67.2431 -11.6274 -17.4114 -1.924 0 -5.68434e-14 44.4591 -5.33191 -14.5627 8.7379 -0.0029 0.0005 25.4633 -25.3535 29.042 0 -46.6676 7.10543e-15 3.45455 32.7889 9.11947 3.55271e-15 -40.1476 -3.55271e-15 -8.25962 -1.38775 13.6978 0 -8.8846 14.2294 0.0001 1.86361e-17 1.19271e-15 -8.7379 0.0029 -0.0005 -9.89654 -12.0111 -23.8484 3.55271e-15 -46.6676 0 -5.33846 26.6014 9.88412 0 -40.1476 -8.88178e-16 13.6679 -12.0185 -15.7127 0 -8.8846 14.2294 -9.93923e-17 -9.31803e-18 -7.95139e-16 
